<?xml version="1.0" encoding="utf-8"?>
<!-- Generator: Adobe Illustrator 22.1.0, SVG Export Plug-In . SVG Version: 6.00 Build 0)  -->
<svg version="1.1" xmlns="http://www.w3.org/2000/svg" xmlns:xlink="http://www.w3.org/1999/xlink" x="0px" y="0px"
	 viewBox="0 0 512 512" style="enable-background:new 0 0 512 512;" xml:space="preserve">
<style type="text/css">
	.st0{fill:none;}
	.st1{fill:#F1592B;}
</style>
<g id="bg_1_">
	<rect class="st0" width="512" height="512"/>
</g>
<g id="text_2_">
	<path class="st1" d="M443.5,68.5l-82.4,82.4c0,0-0.1,0-0.1,0v-73c0-11.8-14.2-17.6-22.5-9.3L147.2,259.8
		c-8.3,8.3-2.4,22.4,9.3,22.4h178.4c14.5,0,26.2,11.7,26.2,26.2c0,0,0,0-0.1,0.1l-236.2,0c-14.5,0-26.3-11.8-26.3-26.2v0
		c0-6.8,2.7-13.3,7.5-18.1L301.4,68.4c8.3-8.3,2.4-22.4-9.3-22.4h-77.8c-7,0-13.6,2.8-18.6,7.7L53.7,195.8
		c-4.9,4.9-7.7,11.6-7.7,18.6v238.5c0,7.2,5.9,13.1,13.1,13.1l26.3,0c7.2,0,13.1-5.9,13.1-13.1v-13.1l-0.3-39.1
		c-0.2-7.4,5.7-13.5,13.1-13.5h26.2c7.1,0,13,5.7,13.1,12.8l0.3,39.7l0.1,13.2c0,7.2,5.9,13.1,13.1,13.1l26.2,0
		c7.3,0,13.1-5.9,13.1-13.1v-52.5c0-7.2,5.9-13.1,13.1-13.1h78.8c7.2,0,13.1,5.9,13.1,13.1v52.5c0,7.2,5.9,13.1,13.1,13.1h26.4
		c7.1,0,13-5.8,12.9-13l0-13.3v-39.4c0-7.2,5.9-13.1,13.1-13.1h26.2c7.2,0,13.1,5.9,13.1,13.1v39.4v13.1c0,7.2,5.9,13.1,13.1,13.1
		h26.2c7.2,0,13.1-5.9,13.1-13.1v-375C466,66.1,451.8,60.2,443.5,68.5z M308.5,220.6c-9.4,0-17.1-7.6-17.1-17.1
		c0-9.4,7.6-17.1,17.1-17.1s17.1,7.6,17.1,17.1C325.6,212.9,317.9,220.6,308.5,220.6z M256,61.7c5.8,0,10.5,4.7,10.5,10.5
		c0,5.8-4.7,10.5-10.5,10.5c-5.8,0-10.5-4.7-10.5-10.5C245.5,66.5,250.2,61.7,256,61.7z M229.8,88c5.8,0,10.5,4.7,10.5,10.5
		c0,5.8-4.7,10.5-10.5,10.5c-5.8,0-10.5-4.7-10.5-10.5C219.2,92.7,224,88,229.8,88z M203.5,114.2c5.8,0,10.5,4.7,10.5,10.5
		c0,5.8-4.7,10.5-10.5,10.5c-5.8,0-10.5-4.7-10.5-10.5C193,118.9,197.7,114.2,203.5,114.2z M177.2,140.5c5.8,0,10.5,4.7,10.5,10.5
		c0,5.8-4.7,10.5-10.5,10.5c-5.8,0-10.5-4.7-10.5-10.5C166.8,145.2,171.5,140.5,177.2,140.5z M150.3,166.7c5.8,0,10.5,4.7,10.5,10.5
		c0,5.8-4.7,10.5-10.5,10.5c-5.8,0-10.5-4.7-10.5-10.5C139.8,171.4,144.5,166.7,150.3,166.7z M124.8,193c5.8,0,10.5,4.7,10.5,10.5
		c0,5.8-4.7,10.5-10.5,10.5c-5.8,0-10.5-4.7-10.5-10.5C114.2,197.7,119,193,124.8,193z M98.5,219.2c5.8,0,10.5,4.7,10.5,10.5
		c0,5.8-4.7,10.5-10.5,10.5S88,235.5,88,229.7C88,223.9,92.7,219.2,98.5,219.2z M413.5,220.6c-9.4,0-17.1-7.6-17.1-17.1
		c0-9.4,7.6-17.1,17.1-17.1s17.1,7.6,17.1,17.1C430.6,212.9,422.9,220.6,413.5,220.6z"/>
</g>
</svg>
